<svg width="24" height="25" viewBox="0 0 24 25" fill="none" xmlns="http://www.w3.org/2000/svg">
<path d="M15.0122 12.0189L23.3924 3.6387C23.7839 3.24066 24.0023 2.70404 24 2.14572C23.9976 1.58741 23.7748 1.05264 23.3799 0.657896C22.9851 0.263152 22.4503 0.040418 21.892 0.0382106C21.3337 0.0360033 20.7971 0.254501 20.3991 0.646111L12.0189 9.02563L3.6387 0.646111C3.44346 0.443973 3.20993 0.282742 2.95172 0.171824C2.69351 0.0609053 2.4158 0.00252184 2.13479 7.99079e-05C1.85377 -0.00236202 1.57509 0.0511866 1.31499 0.157601C1.05489 0.264015 0.818592 0.421164 0.619878 0.619878C0.421164 0.818592 0.264015 1.05489 0.157601 1.31499C0.0511866 1.57509 -0.00236202 1.85377 7.99079e-05 2.13479C0.00252184 2.4158 0.0609053 2.69351 0.171824 2.95172C0.282742 3.20993 0.443973 3.44346 0.646111 3.6387L9.02563 12.0189L0.646111 20.3991C0.443973 20.5944 0.282742 20.8279 0.171824 21.0861C0.0609053 21.3443 0.00252184 21.622 7.99079e-05 21.903C-0.00236202 22.1841 0.0511866 22.4628 0.157601 22.7228C0.264015 22.9829 0.421164 23.2192 0.619878 23.418C0.818592 23.6167 1.05489 23.7738 1.31499 23.8802C1.57509 23.9867 1.85377 24.0402 2.13479 24.0378C2.4158 24.0353 2.69351 23.9769 2.95172 23.866C3.20993 23.7551 3.44346 23.5939 3.6387 23.3917L12.0189 15.0122L20.3991 23.3924C20.7972 23.7839 21.3338 24.0023 21.8921 24C22.4504 23.9976 22.9852 23.7748 23.3799 23.3799C23.7747 22.9851 23.9974 22.4503 23.9996 21.892C24.0018 21.3337 23.7833 20.7971 23.3917 20.3991L15.0122 12.0189Z" fill="#343434"/>
</svg>
